<?xml version="1.0" standalone="no"?>
<!DOCTYPE svg PUBLIC "-//W3C//DTD SVG 20010904//EN"
 "http://www.w3.org/TR/2001/REC-SVG-20010904/DTD/svg10.dtd">
<svg version="1.0" xmlns="http://www.w3.org/2000/svg"
 width="49.000000pt" height="64.000000pt" viewBox="0 0 49.000000 64.000000"
 preserveAspectRatio="xMidYMid meet">

<g transform="translate(0.000000,64.000000) scale(0.100000,-0.100000)"
fill="#000000" stroke="none">
<path d="M77 633 c-11 -3 -16 -11 -13 -21 3 -9 8 -29 12 -44 5 -21 12 -28 30
-28 13 0 24 6 24 13 0 23 -21 87 -28 86 -4 -1 -15 -3 -25 -6z"/>
<path d="M0 283 c0 -139 4 -255 10 -263 8 -13 45 -15 235 -15 190 0 227 2 235
15 6 8 10 124 10 263 l0 247 -245 0 -245 0 0 -247z m450 -18 l0 -215 -205 0
-205 0 0 215 0 215 205 0 205 0 0 -215z"/>
<path d="M114 423 c11 -42 16 -48 40 -51 22 -3 27 0 23 11 -3 9 -9 32 -13 51
-5 31 -10 36 -34 36 l-28 0 12 -47z"/>
<path d="M80 225 l0 -135 165 0 165 0 0 135 0 135 -165 0 -165 0 0 -135z"/>
</g>
</svg>
